<?xml version="1.0" encoding="UTF-8"?>
<svg xmlns="http://www.w3.org/2000/svg" width="1024" height="1024" viewBox="0 0 1024 1024"><rect x="0" y="0" width="1024" height="1024" fill="#ffffff"/><rect x="0" y="0" width="1024" height="56.32" fill="none" stroke="none"/><rect x="0" y="895.7133" width="1024" height="128.2867" fill="none" stroke="none"/><rect x="87.04" y="56.32" width="849.92" height="171.776" fill="none" stroke="#000000" stroke-width="1.2"/><rect x="163.9322" y="228.096" width="697.7741" height="667.6173" fill="none" stroke="#000000" stroke-width="1.2"/><rect x="178.1555" y="228.096" width="667.433" height="682.0762" fill="none" stroke="none"/><rect x="217.0368" y="254.9862" width="14.0186" height="93.5629" fill="none" stroke="#000000" stroke-width="0.5"/><rect x="235.264" y="254.9862" width="14.0186" height="93.5629" fill="none" stroke="#000000" stroke-width="0.5"/><rect x="253.911" y="254.9862" width="14.0186" height="93.5629" fill="none" stroke="#000000" stroke-width="0.5"/><rect x="272.128" y="254.9862" width="14.0186" height="93.5629" fill="none" stroke="#000000" stroke-width="0.5"/><rect x="291.2154" y="254.9862" width="14.0186" height="93.5629" fill="none" stroke="#000000" stroke-width="0.5"/><rect x="309.4323" y="254.9862" width="14.0186" height="93.5629" fill="none" stroke="#000000" stroke-width="0.5"/><rect x="328.0794" y="254.9862" width="14.0186" height="93.5629" fill="none" stroke="#000000" stroke-width="0.5"/><rect x="347.6378" y="254.9862" width="14.0186" height="93.5629" fill="none" stroke="#000000" stroke-width="0.5"/><rect x="366.7866" y="254.9862" width="14.0186" height="93.5629" fill="none" stroke="#000000" stroke-width="0.5"/><rect x="384.2048" y="254.9862" width="14.0186" height="93.5629" fill="none" stroke="#000000" stroke-width="0.5"/><rect x="404.4595" y="254.9862" width="14.0186" height="93.5629" fill="none" stroke="#000000" stroke-width="0.5"/><rect x="422.6765" y="254.9862" width="14.0186" height="93.5629" fill="none" stroke="#000000" stroke-width="0.5"/><rect x="440.6886" y="254.9862" width="14.0186" height="93.5629" fill="none" stroke="#000000" stroke-width="0.5"/><rect x="459.9808" y="254.9862" width="14.0186" height="93.5629" fill="none" stroke="#000000" stroke-width="0.5"/><rect x="478.6278" y="254.9862" width="14.0186" height="93.5629" fill="none" stroke="#000000" stroke-width="0.5"/><rect x="496.8448" y="254.9862" width="14.0186" height="93.5629" fill="none" stroke="#000000" stroke-width="0.5"/><rect x="515.7478" y="254.9862" width="14.0186" height="93.5629" fill="none" stroke="#000000" stroke-width="0.5"/><rect x="534.2413" y="254.9862" width="14.0186" height="93.5629" fill="none" stroke="#000000" stroke-width="0.5"/><rect x="553.1546" y="254.9862" width="14.0186" height="93.5629" fill="none" stroke="#000000" stroke-width="0.5"/><rect x="571.3715" y="254.9862" width="14.0186" height="93.5629" fill="none" stroke="#000000" stroke-width="0.5"/><rect x="590.4589" y="254.9862" width="14.0186" height="93.5629" fill="none" stroke="#000000" stroke-width="0.5"/><rect x="608.4096" y="254.9862" width="14.0186" height="93.5629" fill="none" stroke="#000000" stroke-width="0.5"/><rect x="627.0566" y="254.9862" width="14.0186" height="93.5629" fill="none" stroke="#000000" stroke-width="0.5"/><rect x="645.8163" y="254.9862" width="14.0186" height="93.5629" fill="none" stroke="#000000" stroke-width="0.5"/><rect x="664.9651" y="254.9862" width="14.0186" height="93.5629" fill="none" stroke="#000000" stroke-width="0.5"/><rect x="684.2573" y="254.9862" width="14.0186" height="93.5629" fill="none" stroke="#000000" stroke-width="0.5"/><rect x="702.9043" y="254.9862" width="14.0186" height="93.5629" fill="none" stroke="#000000" stroke-width="0.5"/><rect x="721.3875" y="254.9862" width="14.0186" height="93.5629" fill="none" stroke="#000000" stroke-width="0.5"/><rect x="740.2086" y="254.9862" width="14.0186" height="93.5629" fill="none" stroke="#000000" stroke-width="0.5"/><rect x="758.6918" y="254.9862" width="14.0186" height="93.5629" fill="none" stroke="#000000" stroke-width="0.5"/><rect x="776.2739" y="254.9862" width="14.0186" height="93.5629" fill="none" stroke="#000000" stroke-width="0.5"/><rect x="795.2896" y="254.9862" width="14.0186" height="93.5629" fill="none" stroke="#000000" stroke-width="0.5"/><rect x="178.1555" y="348.9075" width="667.433" height="16.3533" fill="none" stroke="#000000" stroke-width="1.2"/><rect x="215.5418" y="392.3149" width="14.0186" height="93.5629" fill="none" stroke="#000000" stroke-width="0.5"/><rect x="233.7587" y="392.3149" width="14.0186" height="93.5629" fill="none" stroke="#000000" stroke-width="0.5"/><rect x="252.4058" y="392.3149" width="14.0186" height="93.5629" fill="none" stroke="#000000" stroke-width="0.5"/><rect x="270.6227" y="392.3149" width="14.0186" height="93.5629" fill="none" stroke="#000000" stroke-width="0.5"/><rect x="289.7101" y="392.3149" width="14.0186" height="93.5629" fill="none" stroke="#000000" stroke-width="0.5"/><rect x="307.927" y="392.3149" width="14.0186" height="93.5629" fill="none" stroke="#000000" stroke-width="0.5"/><rect x="326.5741" y="392.3149" width="14.0186" height="93.5629" fill="none" stroke="#000000" stroke-width="0.5"/><rect x="346.1325" y="392.3149" width="14.0186" height="93.5629" fill="none" stroke="#000000" stroke-width="0.5"/><rect x="365.2915" y="392.3149" width="14.0186" height="93.5629" fill="none" stroke="#000000" stroke-width="0.5"/><rect x="382.6995" y="392.3149" width="14.0186" height="93.5629" fill="none" stroke="#000000" stroke-width="0.5"/><rect x="402.9542" y="392.3149" width="14.0186" height="93.5629" fill="none" stroke="#000000" stroke-width="0.5"/><rect x="421.1712" y="392.3149" width="14.0186" height="93.5629" fill="none" stroke="#000000" stroke-width="0.5"/><rect x="439.1936" y="392.3149" width="14.0186" height="93.5629" fill="none" stroke="#000000" stroke-width="0.5"/><rect x="458.4858" y="392.3149" width="14.0186" height="93.5629" fill="none" stroke="#000000" stroke-width="0.5"/><rect x="477.1328" y="392.3149" width="14.0186" height="93.5629" fill="none" stroke="#000000" stroke-width="0.5"/><rect x="495.3498" y="392.3149" width="14.0186" height="93.5629" fill="none" stroke="#000000" stroke-width="0.5"/><rect x="514.2528" y="392.3149" width="14.0186" height="93.5629" fill="none" stroke="#000000" stroke-width="0.5"/><rect x="532.736" y="392.3149" width="14.0186" height="93.5629" fill="none" stroke="#000000" stroke-width="0.5"/><rect x="551.6493" y="392.3149" width="14.0186" height="93.5629" fill="none" stroke="#000000" stroke-width="0.5"/><rect x="569.8765" y="392.3149" width="14.0186" height="93.5629" fill="none" stroke="#000000" stroke-width="0.5"/><rect x="588.9638" y="392.3149" width="14.0186" height="93.5629" fill="none" stroke="#000000" stroke-width="0.5"/><rect x="606.9146" y="392.3149" width="14.0186" height="93.5629" fill="none" stroke="#000000" stroke-width="0.5"/><rect x="625.5616" y="392.3149" width="14.0186" height="93.5629" fill="none" stroke="#000000" stroke-width="0.5"/><rect x="644.311" y="392.3149" width="14.0186" height="93.5629" fill="none" stroke="#000000" stroke-width="0.5"/><rect x="663.4598" y="392.3149" width="14.0186" height="93.5629" fill="none" stroke="#000000" stroke-width="0.5"/><rect x="682.752" y="392.3149" width="14.0186" height="93.5629" fill="none" stroke="#000000" stroke-width="0.5"/><rect x="701.399" y="392.3149" width="14.0186" height="93.5629" fill="none" stroke="#000000" stroke-width="0.5"/><rect x="719.8822" y="392.3149" width="14.0186" height="93.5629" fill="none" stroke="#000000" stroke-width="0.5"/><rect x="738.7034" y="392.3149" width="14.0186" height="93.5629" fill="none" stroke="#000000" stroke-width="0.5"/><rect x="757.1968" y="392.3149" width="14.0186" height="93.5629" fill="none" stroke="#000000" stroke-width="0.5"/><rect x="774.7686" y="392.3149" width="14.0186" height="93.5629" fill="none" stroke="#000000" stroke-width="0.5"/><rect x="793.7946" y="392.3149" width="14.0186" height="93.5629" fill="none" stroke="#000000" stroke-width="0.5"/><rect x="178.1555" y="486.912" width="667.433" height="16.3533" fill="none" stroke="#000000" stroke-width="1.2"/><rect x="215.5418" y="524.2266" width="14.0186" height="93.5629" fill="none" stroke="#000000" stroke-width="0.5"/><rect x="233.7587" y="524.2266" width="14.0186" height="93.5629" fill="none" stroke="#000000" stroke-width="0.5"/><rect x="252.4058" y="524.2266" width="14.0186" height="93.5629" fill="none" stroke="#000000" stroke-width="0.5"/><rect x="270.6227" y="524.2266" width="14.0186" height="93.5629" fill="none" stroke="#000000" stroke-width="0.5"/><rect x="289.7101" y="524.2266" width="14.0186" height="93.5629" fill="none" stroke="#000000" stroke-width="0.5"/><rect x="307.927" y="524.2266" width="14.0186" height="93.5629" fill="none" stroke="#000000" stroke-width="0.5"/><rect x="326.5741" y="524.2266" width="14.0186" height="93.5629" fill="none" stroke="#000000" stroke-width="0.5"/><rect x="346.1325" y="524.2266" width="14.0186" height="93.5629" fill="none" stroke="#000000" stroke-width="0.5"/><rect x="365.2915" y="524.2266" width="14.0186" height="93.5629" fill="none" stroke="#000000" stroke-width="0.5"/><rect x="382.6995" y="524.2266" width="14.0186" height="93.5629" fill="none" stroke="#000000" stroke-width="0.5"/><rect x="402.9542" y="524.2266" width="14.0186" height="93.5629" fill="none" stroke="#000000" stroke-width="0.5"/><rect x="421.1712" y="524.2266" width="14.0186" height="93.5629" fill="none" stroke="#000000" stroke-width="0.5"/><rect x="439.1936" y="524.2266" width="14.0186" height="93.5629" fill="none" stroke="#000000" stroke-width="0.5"/><rect x="458.4858" y="524.2266" width="14.0186" height="93.5629" fill="none" stroke="#000000" stroke-width="0.5"/><rect x="477.1328" y="524.2266" width="14.0186" height="93.5629" fill="none" stroke="#000000" stroke-width="0.5"/><rect x="495.3498" y="524.2266" width="14.0186" height="93.5629" fill="none" stroke="#000000" stroke-width="0.5"/><rect x="514.2528" y="524.2266" width="14.0186" height="93.5629" fill="none" stroke="#000000" stroke-width="0.5"/><rect x="532.736" y="524.2266" width="14.0186" height="93.5629" fill="none" stroke="#000000" stroke-width="0.5"/><rect x="551.6493" y="524.2266" width="14.0186" height="93.5629" fill="none" stroke="#000000" stroke-width="0.5"/><rect x="569.8765" y="524.2266" width="14.0186" height="93.5629" fill="none" stroke="#000000" stroke-width="0.5"/><rect x="588.9638" y="524.2266" width="14.0186" height="93.5629" fill="none" stroke="#000000" stroke-width="0.5"/><rect x="606.9146" y="524.2266" width="14.0186" height="93.5629" fill="none" stroke="#000000" stroke-width="0.5"/><rect x="625.5616" y="524.2266" width="14.0186" height="93.5629" fill="none" stroke="#000000" stroke-width="0.5"/><rect x="644.311" y="524.2266" width="14.0186" height="93.5629" fill="none" stroke="#000000" stroke-width="0.5"/><rect x="663.4598" y="524.2266" width="14.0186" height="93.5629" fill="none" stroke="#000000" stroke-width="0.5"/><rect x="682.752" y="524.2266" width="14.0186" height="93.5629" fill="none" stroke="#000000" stroke-width="0.5"/><rect x="701.399" y="524.2266" width="14.0186" height="93.5629" fill="none" stroke="#000000" stroke-width="0.5"/><rect x="719.8822" y="524.2266" width="14.0186" height="93.5629" fill="none" stroke="#000000" stroke-width="0.5"/><rect x="738.7034" y="524.2266" width="14.0186" height="93.5629" fill="none" stroke="#000000" stroke-width="0.5"/><rect x="757.1968" y="524.2266" width="14.0186" height="93.5629" fill="none" stroke="#000000" stroke-width="0.5"/><rect x="774.7686" y="524.2266" width="14.0186" height="93.5629" fill="none" stroke="#000000" stroke-width="0.5"/><rect x="793.7946" y="524.2266" width="14.0186" height="93.5629" fill="none" stroke="#000000" stroke-width="0.5"/><rect x="178.1555" y="623.657" width="667.433" height="16.3533" fill="none" stroke="#000000" stroke-width="1.2"/><rect x="215.5418" y="657.0598" width="14.0186" height="93.5629" fill="none" stroke="#000000" stroke-width="0.5"/><rect x="233.7587" y="657.0598" width="14.0186" height="93.5629" fill="none" stroke="#000000" stroke-width="0.5"/><rect x="252.4058" y="657.0598" width="14.0186" height="93.5629" fill="none" stroke="#000000" stroke-width="0.5"/><rect x="270.6227" y="657.0598" width="14.0186" height="93.5629" fill="none" stroke="#000000" stroke-width="0.5"/><rect x="289.7101" y="657.0598" width="14.0186" height="93.5629" fill="none" stroke="#000000" stroke-width="0.5"/><rect x="307.927" y="657.0598" width="14.0186" height="93.5629" fill="none" stroke="#000000" stroke-width="0.5"/><rect x="326.5741" y="657.0598" width="14.0186" height="93.5629" fill="none" stroke="#000000" stroke-width="0.5"/><rect x="346.1325" y="657.0598" width="14.0186" height="93.5629" fill="none" stroke="#000000" stroke-width="0.5"/><rect x="365.2915" y="657.0598" width="14.0186" height="93.5629" fill="none" stroke="#000000" stroke-width="0.5"/><rect x="382.6995" y="657.0598" width="14.0186" height="93.5629" fill="none" stroke="#000000" stroke-width="0.5"/><rect x="402.9542" y="657.0598" width="14.0186" height="93.5629" fill="none" stroke="#000000" stroke-width="0.5"/><rect x="421.1712" y="657.0598" width="14.0186" height="93.5629" fill="none" stroke="#000000" stroke-width="0.5"/><rect x="439.1936" y="657.0598" width="14.0186" height="93.5629" fill="none" stroke="#000000" stroke-width="0.5"/><rect x="458.4858" y="657.0598" width="14.0186" height="93.5629" fill="none" stroke="#000000" stroke-width="0.5"/><rect x="477.1328" y="657.0598" width="14.0186" height="93.5629" fill="none" stroke="#000000" stroke-width="0.5"/><rect x="495.3498" y="657.0598" width="14.0186" height="93.5629" fill="none" stroke="#000000" stroke-width="0.5"/><rect x="514.2528" y="657.0598" width="14.0186" height="93.5629" fill="none" stroke="#000000" stroke-width="0.5"/><rect x="532.736" y="657.0598" width="14.0186" height="93.5629" fill="none" stroke="#000000" stroke-width="0.5"/><rect x="551.6493" y="657.0598" width="14.0186" height="93.5629" fill="none" stroke="#000000" stroke-width="0.5"/><rect x="569.8765" y="657.0598" width="14.0186" height="93.5629" fill="none" stroke="#000000" stroke-width="0.5"/><rect x="588.9638" y="657.0598" width="14.0186" height="93.5629" fill="none" stroke="#000000" stroke-width="0.5"/><rect x="606.9146" y="657.0598" width="14.0186" height="93.5629" fill="none" stroke="#000000" stroke-width="0.5"/><rect x="625.5616" y="657.0598" width="14.0186" height="93.5629" fill="none" stroke="#000000" stroke-width="0.5"/><rect x="644.311" y="657.0598" width="14.0186" height="93.5629" fill="none" stroke="#000000" stroke-width="0.5"/><rect x="663.4598" y="657.0598" width="14.0186" height="93.5629" fill="none" stroke="#000000" stroke-width="0.5"/><rect x="682.752" y="657.0598" width="14.0186" height="93.5629" fill="none" stroke="#000000" stroke-width="0.5"/><rect x="701.399" y="657.0598" width="14.0186" height="93.5629" fill="none" stroke="#000000" stroke-width="0.5"/><rect x="719.8822" y="657.0598" width="14.0186" height="93.5629" fill="none" stroke="#000000" stroke-width="0.5"/><rect x="738.7034" y="657.0598" width="14.0186" height="93.5629" fill="none" stroke="#000000" stroke-width="0.5"/><rect x="757.1968" y="657.0598" width="14.0186" height="93.5629" fill="none" stroke="#000000" stroke-width="0.5"/><rect x="774.7686" y="657.0598" width="14.0186" height="93.5629" fill="none" stroke="#000000" stroke-width="0.5"/><rect x="793.7946" y="657.0598" width="14.0186" height="93.5629" fill="none" stroke="#000000" stroke-width="0.5"/><rect x="178.1555" y="755.9578" width="667.433" height="16.3533" fill="none" stroke="#000000" stroke-width="1.2"/><rect x="215.5418" y="790.569" width="14.0186" height="93.5629" fill="none" stroke="#000000" stroke-width="0.5"/><rect x="233.7587" y="790.569" width="14.0186" height="93.5629" fill="none" stroke="#000000" stroke-width="0.5"/><rect x="252.4058" y="790.569" width="14.0186" height="93.5629" fill="none" stroke="#000000" stroke-width="0.5"/><rect x="270.6227" y="790.569" width="14.0186" height="93.5629" fill="none" stroke="#000000" stroke-width="0.5"/><rect x="289.7101" y="790.569" width="14.0186" height="93.5629" fill="none" stroke="#000000" stroke-width="0.5"/><rect x="307.927" y="790.569" width="14.0186" height="93.5629" fill="none" stroke="#000000" stroke-width="0.5"/><rect x="326.5741" y="790.569" width="14.0186" height="93.5629" fill="none" stroke="#000000" stroke-width="0.5"/><rect x="346.1325" y="790.569" width="14.0186" height="93.5629" fill="none" stroke="#000000" stroke-width="0.5"/><rect x="365.2915" y="790.569" width="14.0186" height="93.5629" fill="none" stroke="#000000" stroke-width="0.5"/><rect x="382.6995" y="790.569" width="14.0186" height="93.5629" fill="none" stroke="#000000" stroke-width="0.5"/><rect x="402.9542" y="790.569" width="14.0186" height="93.5629" fill="none" stroke="#000000" stroke-width="0.5"/><rect x="421.1712" y="790.569" width="14.0186" height="93.5629" fill="none" stroke="#000000" stroke-width="0.5"/><rect x="439.1936" y="790.569" width="14.0186" height="93.5629" fill="none" stroke="#000000" stroke-width="0.5"/><rect x="458.4858" y="790.569" width="14.0186" height="93.5629" fill="none" stroke="#000000" stroke-width="0.5"/><rect x="477.1328" y="790.569" width="14.0186" height="93.5629" fill="none" stroke="#000000" stroke-width="0.5"/><rect x="495.3498" y="790.569" width="14.0186" height="93.5629" fill="none" stroke="#000000" stroke-width="0.5"/><rect x="514.2528" y="790.569" width="14.0186" height="93.5629" fill="none" stroke="#000000" stroke-width="0.5"/><rect x="532.736" y="790.569" width="14.0186" height="93.5629" fill="none" stroke="#000000" stroke-width="0.5"/><rect x="551.6493" y="790.569" width="14.0186" height="93.5629" fill="none" stroke="#000000" stroke-width="0.5"/><rect x="569.8765" y="790.569" width="14.0186" height="93.5629" fill="none" stroke="#000000" stroke-width="0.5"/><rect x="588.9638" y="790.569" width="14.0186" height="93.5629" fill="none" stroke="#000000" stroke-width="0.5"/><rect x="606.9146" y="790.569" width="14.0186" height="93.5629" fill="none" stroke="#000000" stroke-width="0.5"/><rect x="625.5616" y="790.569" width="14.0186" height="93.5629" fill="none" stroke="#000000" stroke-width="0.5"/><rect x="644.311" y="790.569" width="14.0186" height="93.5629" fill="none" stroke="#000000" stroke-width="0.5"/><rect x="663.4598" y="790.569" width="14.0186" height="93.5629" fill="none" stroke="#000000" stroke-width="0.5"/><rect x="682.752" y="790.569" width="14.0186" height="93.5629" fill="none" stroke="#000000" stroke-width="0.5"/><rect x="701.399" y="790.569" width="14.0186" height="93.5629" fill="none" stroke="#000000" stroke-width="0.5"/><rect x="719.8822" y="790.569" width="14.0186" height="93.5629" fill="none" stroke="#000000" stroke-width="0.5"/><rect x="738.7034" y="790.569" width="14.0186" height="93.5629" fill="none" stroke="#000000" stroke-width="0.5"/><rect x="757.1968" y="790.569" width="14.0186" height="93.5629" fill="none" stroke="#000000" stroke-width="0.5"/><rect x="774.7686" y="790.569" width="14.0186" height="93.5629" fill="none" stroke="#000000" stroke-width="0.5"/><rect x="793.7946" y="790.569" width="14.0186" height="93.5629" fill="none" stroke="#000000" stroke-width="0.5"/><rect x="163.9322" y="895.7133" width="697.7843" height="14.4691" fill="none" stroke="#000000" stroke-width="1.2"/><rect x="163.9322" y="228.096" width="14.2234" height="667.6173" fill="none" stroke="#000000" stroke-width="1.2"/><rect x="845.5885" y="228.096" width="16.1178" height="667.6173" fill="none" stroke="#000000" stroke-width="1.2"/><polygon points="0,0 87.04,56.32 87.04,895.7133 0,1024" fill="none" stroke="#000000" stroke-width="1.2"/><polygon points="1024,0 936.96,56.32 936.96,895.7133 1024,1024" fill="none" stroke="#000000" stroke-width="1.2"/><circle cx="510.8634" cy="179.5891" r="30.5357" fill="none" stroke="#000000" stroke-width="1.2"/></svg>