<?xml version="1.0" encoding="UTF-8"?>
<svg xmlns="http://www.w3.org/2000/svg" width="1024" height="1024" viewBox="0 0 1024 1024"><defs><radialGradient id="lampGlow"><stop offset="0%" stop-color="#ffe9b8" stop-opacity="0.5"/><stop offset="100%" stop-color="#ffe9b8" stop-opacity="0"/></radialGradient></defs><rect x="0" y="0" width="1024" height="1024" fill="#3a332b"/><rect x="0" y="0" width="1024" height="56.32" fill="#2a251e" stroke="none"/><rect x="0" y="901.12" width="1024" height="122.88" fill="#332c24" stroke="none"/><rect x="87.04" y="56.32" width="849.92" height="153.6" fill="#3a332b" stroke="none"/><rect x="163.84" y="209.92" width="696.32" height="691.2" fill="#5c5140" stroke="none"/><rect x="182.272" y="228.352" width="659.456" height="672.768" fill="#1d1913" stroke="none"/><rect x="183.726" y="238.591" width="17.7" height="109.365" fill="#463a2a" stroke="none"/><rect x="204.28" y="232.834" width="17.807" height="115.122" fill="#463a2a" stroke="none"/><rect x="224.924" y="250.88" width="17.737" height="97.076" fill="#625030" stroke="none"/><rect x="245.461" y="234.487" width="17.878" height="113.469" fill="#625030" stroke="none"/><rect x="265.587" y="239.893" width="18.841" height="108.063" fill="#54432f" stroke="none"/><rect x="286.1" y="243.434" width="19.031" height="104.522" fill="#6e5a3e" stroke="none"/><rect x="307.546" y="240.464" width="17.356" height="107.492" fill="#625030" stroke="none"/><rect x="327.261" y="238.159" width="19.141" height="109.797" fill="#7a6444" stroke="none"/><rect x="348.635" y="240.068" width="17.611" height="107.888" fill="#54432f" stroke="none"/><rect x="368.483" y="254.912" width="19.131" height="93.044" fill="#7a6444" stroke="none"/><rect x="389.615" y="251.32" width="18.082" height="96.636" fill="#6a563c" stroke="none"/><rect x="410.279" y="239.964" width="17.97" height="107.992" fill="#463a2a" stroke="none"/><rect x="431.006" y="247.073" width="17.732" height="100.883" fill="#5b4a33" stroke="none"/><rect x="451.945" y="248.5" width="17.07" height="99.456" fill="#3a3025" stroke="none"/><rect x="471.789" y="240.4" width="18.599" height="107.556" fill="#463a2a" stroke="none"/><rect x="492.453" y="253.109" width="18.487" height="94.847" fill="#4a3c2b" stroke="none"/><rect x="513.053" y="253.093" width="18.502" height="94.863" fill="#6e5a3e" stroke="none"/><rect x="534.287" y="234.124" width="17.251" height="113.832" fill="#625030" stroke="none"/><rect x="554.483" y="237.198" width="18.073" height="110.758" fill="#3a3025" stroke="none"/><rect x="574.728" y="254.183" width="18.8" height="93.773" fill="#463a2a" stroke="none"/><rect x="595.459" y="244.462" width="18.553" height="103.494" fill="#463a2a" stroke="none"/><rect x="616.64" y="251.581" width="17.408" height="96.375" fill="#54432f" stroke="none"/><rect x="636.452" y="235.929" width="19" height="112.027" fill="#463a2a" stroke="none"/><rect x="657.909" y="253.411" width="17.302" height="94.545" fill="#3f3426" stroke="none"/><rect x="678.183" y="251.583" width="17.971" height="96.373" fill="#4a3c2b" stroke="none"/><rect x="698.72" y="244.447" width="18.111" height="103.509" fill="#6e5a3e" stroke="none"/><rect x="719.837" y="250.574" width="17.094" height="97.382" fill="#54432f" stroke="none"/><rect x="739.947" y="250.831" width="18.09" height="97.125" fill="#625030" stroke="none"/><rect x="761.08" y="234.577" width="17.04" height="113.379" fill="#3a3025" stroke="none"/><rect x="780.825" y="245.631" width="18.766" height="102.325" fill="#3f3426" stroke="none"/><rect x="801.495" y="245.57" width="18.642" height="102.386" fill="#3a3025" stroke="none"/><rect x="821.879" y="237.146" width="19.091" height="110.81" fill="#625030" stroke="none"/><rect x="182.272" y="347.956" width="659.456" height="14.95" fill="#6b5c46" stroke="none"/><rect x="184.001" y="373.106" width="17.15" height="109.404" fill="#4a3c2b" stroke="none"/><rect x="204.507" y="368.99" width="17.354" height="113.52" fill="#625030" stroke="none"/><rect x="224.219" y="374.379" width="19.146" height="108.131" fill="#6e5a3e" stroke="none"/><rect x="245.214" y="368.324" width="18.371" height="114.186" fill="#6a563c" stroke="none"/><rect x="266.201" y="377.107" width="17.615" height="105.403" fill="#5b4a33" stroke="none"/><rect x="286.029" y="374.616" width="19.174" height="107.894" fill="#6e5a3e" stroke="none"/><rect x="306.724" y="374.553" width="18.999" height="107.957" fill="#3f3426" stroke="none"/><rect x="328.165" y="378.649" width="17.334" height="103.861" fill="#5b4a33" stroke="none"/><rect x="348.947" y="372.809" width="16.987" height="109.701" fill="#3a3025" stroke="none"/><rect x="368.965" y="375.233" width="18.167" height="107.277" fill="#6a563c" stroke="none"/><rect x="389.928" y="383.278" width="17.456" height="99.232" fill="#3f3426" stroke="none"/><rect x="410.419" y="372.52" width="17.691" height="109.99" fill="#3f3426" stroke="none"/><rect x="430.736" y="376.987" width="18.273" height="105.523" fill="#3f3426" stroke="none"/><rect x="451.769" y="390.001" width="17.423" height="92.509" fill="#54432f" stroke="none"/><rect x="471.673" y="387.936" width="18.831" height="94.574" fill="#625030" stroke="none"/><rect x="493.052" y="385.4" width="17.289" height="97.11" fill="#5b4a33" stroke="none"/><rect x="512.893" y="368.353" width="18.822" height="114.157" fill="#54432f" stroke="none"/><rect x="533.502" y="377.036" width="18.82" height="105.474" fill="#6a563c" stroke="none" transform="rotate(0.962 542.912 482.51)"/><rect x="554.644" y="376.096" width="17.751" height="106.414" fill="#7a6444" stroke="none"/><rect x="574.774" y="374.955" width="18.708" height="107.555" fill="#7a6444" stroke="none"/><rect x="596.189" y="367.913" width="17.094" height="114.597" fill="#3a3025" stroke="none"/><rect x="616.111" y="368.344" width="18.466" height="114.166" fill="#4a3c2b" stroke="none"/><rect x="637.169" y="375.244" width="17.566" height="107.266" fill="#3f3426" stroke="none"/><rect x="657.176" y="385.662" width="18.769" height="96.848" fill="#54432f" stroke="none"/><rect x="677.589" y="368.502" width="19.157" height="114.008" fill="#6a563c" stroke="none"/><rect x="698.603" y="387.438" width="18.345" height="95.072" fill="#7a6444" stroke="none"/><rect x="719.637" y="372.659" width="17.494" height="109.851" fill="#3f3426" stroke="none"/><rect x="739.869" y="371.36" width="18.246" height="111.15" fill="#5b4a33" stroke="none"/><rect x="760.214" y="386.254" width="18.772" height="96.256" fill="#7a6444" stroke="none"/><rect x="780.72" y="368.638" width="18.976" height="113.872" fill="#5b4a33" stroke="none"/><rect x="801.198" y="375.612" width="19.235" height="106.898" fill="#463a2a" stroke="none"/><rect x="822.473" y="382.282" width="17.902" height="100.228" fill="#7a6444" stroke="none"/><rect x="182.272" y="482.51" width="659.456" height="14.95" fill="#6b5c46" stroke="none"/><rect x="183.221" y="511.502" width="18.71" height="105.561" fill="#54432f" stroke="none"/><rect x="203.998" y="501.765" width="18.371" height="115.298" fill="#6e5a3e" stroke="none"/><rect x="224.853" y="510.478" width="17.877" height="106.585" fill="#4a3c2b" stroke="none"/><rect x="244.804" y="503.264" width="19.193" height="113.799" fill="#463a2a" stroke="none"/><rect x="265.989" y="518.285" width="18.038" height="98.778" fill="#6e5a3e" stroke="none"/><rect x="286.964" y="521.566" width="17.305" height="95.497" fill="#54432f" stroke="none"/><rect x="307.509" y="524.196" width="17.43" height="92.867" fill="#625030" stroke="none"/><rect x="328.087" y="505.644" width="17.49" height="111.419" fill="#463a2a" stroke="none"/><rect x="348.227" y="516.273" width="18.427" height="100.79" fill="#6a563c" stroke="none"/><rect x="369.187" y="515.843" width="17.721" height="101.22" fill="#4a3c2b" stroke="none"/><rect x="389.713" y="509.702" width="17.887" height="107.361" fill="#7a6444" stroke="none"/><rect x="410.234" y="519.908" width="18.06" height="97.155" fill="#3f3426" stroke="none"/><rect x="431" y="519.856" width="17.745" height="97.207" fill="#54432f" stroke="none"/><rect x="451.98" y="525.293" width="16.999" height="91.77" fill="#625030" stroke="none"/><rect x="471.641" y="519.742" width="18.894" height="97.321" fill="#625030" stroke="none"/><rect x="493.232" y="505.867" width="16.928" height="111.196" fill="#6a563c" stroke="none"/><rect x="512.923" y="521.379" width="18.761" height="95.684" fill="#625030" stroke="none"/><rect x="533.826" y="507.249" width="18.172" height="109.814" fill="#6e5a3e" stroke="none"/><rect x="554.781" y="516.985" width="17.478" height="100.078" fill="#4a3c2b" stroke="none"/><rect x="574.92" y="509.55" width="18.415" height="107.513" fill="#7a6444" stroke="none"/><rect x="595.515" y="516.661" width="18.442" height="100.402" fill="#6e5a3e" stroke="none"/><rect x="616.127" y="506.461" width="18.435" height="110.602" fill="#7a6444" stroke="none"/><rect x="636.939" y="502.931" width="18.025" height="114.132" fill="#54432f" stroke="none"/><rect x="657.418" y="518.737" width="18.284" height="98.326" fill="#5b4a33" stroke="none"/><rect x="678.622" y="525.16" width="17.093" height="91.903" fill="#7a6444" stroke="none"/><rect x="698.642" y="502.895" width="18.268" height="114.168" fill="#54432f" stroke="none"/><rect x="719.021" y="508.494" width="18.727" height="108.569" fill="#3f3426" stroke="none"/><rect x="739.645" y="522.949" width="18.694" height="94.114" fill="#5b4a33" stroke="none"/><rect x="760.683" y="503.66" width="17.834" height="113.403" fill="#463a2a" stroke="none"/><rect x="781.29" y="503.704" width="17.836" height="113.359" fill="#4a3c2b" stroke="none"/><rect x="801.905" y="517.415" width="17.821" height="99.648" fill="#6a563c" stroke="none"/><rect x="822.586" y="517.45" width="17.676" height="99.613" fill="#625030" stroke="none"/><rect x="182.272" y="617.063" width="659.456" height="14.95" fill="#6b5c46" stroke="none"/><rect x="183.762" y="650.314" width="17.627" height="101.303" fill="#54432f" stroke="none"/><rect x="204.555" y="650.884" width="17.258" height="100.733" fill="#463a2a" stroke="none"/><rect x="224.985" y="639.628" width="17.615" height="111.989" fill="#6a563c" stroke="none"/><rect x="245.864" y="648.695" width="17.073" height="102.922" fill="#7a6444" stroke="none"/><rect x="265.664" y="649.52" width="18.687" height="102.097" fill="#463a2a" stroke="none"/><rect x="286.382" y="655.941" width="18.467" height="95.676" fill="#54432f" stroke="none"/><rect x="307.695" y="641.935" width="17.058" height="109.682" fill="#3f3426" stroke="none"/><rect x="327.52" y="648.824" width="18.625" height="102.793" fill="#5b4a33" stroke="none"/><rect x="348.207" y="640.906" width="18.466" height="110.711" fill="#625030" stroke="none"/><rect x="368.403" y="655.104" width="19.29" height="96.513" fill="#463a2a" stroke="none"/><rect x="390.181" y="649.36" width="16.95" height="102.257" fill="#6e5a3e" stroke="none"/><rect x="409.979" y="645.105" width="18.571" height="106.512" fill="#54432f" stroke="none"/><rect x="431.238" y="636.7" width="17.268" height="114.917" fill="#3f3426" stroke="none"/><rect x="451.829" y="647.824" width="17.303" height="103.793" fill="#625030" stroke="none"/><rect x="471.734" y="647.922" width="18.707" height="103.695" fill="#463a2a" stroke="none"/><rect x="492.485" y="647.471" width="18.421" height="104.146" fill="#463a2a" stroke="none"/><rect x="513.597" y="659.815" width="17.413" height="91.802" fill="#54432f" stroke="none"/><rect x="534.026" y="642.59" width="17.771" height="109.027" fill="#6e5a3e" stroke="none"/><rect x="554.257" y="647.799" width="18.525" height="103.818" fill="#6e5a3e" stroke="none"/><rect x="574.92" y="637.897" width="18.415" height="113.72" fill="#4a3c2b" stroke="none"/><rect x="596.199" y="640.256" width="17.073" height="111.361" fill="#4a3c2b" stroke="none"/><rect x="616.776" y="656.437" width="17.136" height="95.18" fill="#7a6444" stroke="none"/><rect x="636.524" y="640.839" width="18.857" height="110.778" fill="#7a6444" stroke="none"/><rect x="656.913" y="635.763" width="19.294" height="115.854" fill="#54432f" stroke="none"/><rect x="677.525" y="656.94" width="19.286" height="94.677" fill="#625030" stroke="none"/><rect x="698.798" y="656.173" width="17.956" height="95.444" fill="#5b4a33" stroke="none"/><rect x="718.96" y="651.415" width="18.847" height="100.202" fill="#3a3025" stroke="none"/><rect x="739.743" y="644.869" width="18.498" height="106.748" fill="#6a563c" stroke="none"/><rect x="760.643" y="656.477" width="17.913" height="95.14" fill="#6a563c" stroke="none"/><rect x="781.47" y="657.205" width="17.476" height="94.412" fill="#7a6444" stroke="none"/><rect x="801.511" y="639.19" width="18.609" height="112.427" fill="#4a3c2b" stroke="none"/><rect x="822.916" y="638.594" width="17.016" height="113.023" fill="#463a2a" stroke="none"/><rect x="182.272" y="751.617" width="659.456" height="14.95" fill="#6b5c46" stroke="none"/><rect x="183.863" y="783.487" width="17.427" height="102.683" fill="#6a563c" stroke="none"/><rect x="203.856" y="779.716" width="18.657" height="106.454" fill="#625030" stroke="none"/><rect x="225.278" y="780.547" width="17.028" height="105.623" fill="#3f3426" stroke="none"/><rect x="245.752" y="770.955" width="17.296" height="115.215" fill="#6e5a3e" stroke="none"/><rect x="266.048" y="785.065" width="17.92" height="101.105" fill="#54432f" stroke="none"/><rect x="286.442" y="793.614" width="18.347" height="92.556" fill="#625030" stroke="none"/><rect x="306.962" y="775.329" width="18.525" height="110.841" fill="#4a3c2b" stroke="none"/><rect x="327.503" y="778.572" width="18.659" height="107.598" fill="#3a3025" stroke="none"/><rect x="348.369" y="772.449" width="18.142" height="113.721" fill="#6e5a3e" stroke="none"/><rect x="368.969" y="770.503" width="18.158" height="115.667" fill="#7a6444" stroke="none"/><rect x="389.318" y="793.604" width="18.676" height="92.566" fill="#7a6444" stroke="none"/><rect x="409.591" y="783.513" width="19.346" height="102.657" fill="#463a2a" stroke="none"/><rect x="430.722" y="775.987" width="18.3" height="110.183" fill="#6e5a3e" stroke="none"/><rect x="451.52" y="770.793" width="17.92" height="115.377" fill="#3f3426" stroke="none"/><rect x="471.667" y="793.066" width="18.843" height="93.104" fill="#463a2a" stroke="none"/><rect x="492.394" y="788.111" width="18.605" height="98.059" fill="#625030" stroke="none"/><rect x="512.835" y="789.98" width="18.939" height="96.19" fill="#3a3025" stroke="none"/><rect x="534.201" y="780.738" width="17.422" height="105.432" fill="#463a2a" stroke="none"/><rect x="554.079" y="777.511" width="18.882" height="108.659" fill="#54432f" stroke="none"/><rect x="575.544" y="770.531" width="17.168" height="115.639" fill="#463a2a" stroke="none"/><rect x="595.092" y="790.286" width="19.287" height="95.884" fill="#6e5a3e" stroke="none"/><rect x="616.082" y="775.34" width="18.524" height="110.83" fill="#625030" stroke="none"/><rect x="637.47" y="792.889" width="16.964" height="93.281" fill="#4a3c2b" stroke="none"/><rect x="656.882" y="772.056" width="19.356" height="114.114" fill="#4a3c2b" stroke="none"/><rect x="678.121" y="782.764" width="18.093" height="103.406" fill="#625030" stroke="none"/><rect x="698.357" y="794.172" width="18.839" height="91.998" fill="#5b4a33" stroke="none"/><rect x="719.847" y="785.153" width="17.073" height="101.017" fill="#6e5a3e" stroke="none"/><rect x="740.376" y="779.214" width="17.233" height="106.956" fill="#3f3426" stroke="none"/><rect x="760.695" y="785.756" width="17.81" height="100.414" fill="#625030" stroke="none"/><rect x="780.836" y="771.129" width="18.744" height="115.041" fill="#3a3025" stroke="none"/><rect x="801.266" y="787.385" width="19.1" height="98.785" fill="#7a6444" stroke="none"/><rect x="822.368" y="780.402" width="18.113" height="105.768" fill="#54432f" stroke="none"/><rect x="182.272" y="886.17" width="659.456" height="14.95" fill="#6b5c46" stroke="none"/><polygon points="0,0 87.04,56.32 87.04,901.12 0,1024" fill="#241f19" stroke="none"/><polygon points="1024,0 936.96,56.32 936.96,901.12 1024,1024" fill="#241f19" stroke="none"/><circle cx="512" cy="164.864" r="294.91200000000003" fill="url(#lampGlow)"/><circle cx="512" cy="164.864" r="49.152" fill="#f4e3bb" stroke="none"/></svg>