<?xml version="1.0" encoding="UTF-8"?>
<svg xmlns="http://www.w3.org/2000/svg" width="1024" height="1024" viewBox="0 0 1024 1024"><rect x="0" y="0" width="1024" height="1024" fill="#808080"/><rect x="0" y="0" width="1024" height="56.32" fill="#a8a8a8" stroke="none"/><rect x="0" y="904.5401" width="1024" height="119.4599" fill="#b3b3b3" stroke="none"/><rect x="87.04" y="56.32" width="849.92" height="242.4422" fill="#8c8c8c" stroke="none"/><rect x="284.4877" y="298.7622" width="456.3967" height="605.7779" fill="#dbdbdb" stroke="none"/><rect x="178.1555" y="228.096" width="667.433" height="682.0762" fill="#6b6b6b" stroke="none"/><rect x="312.9651" y="336.087" width="9.8099" height="80.2099" fill="#bdbdbd" stroke="none"/><rect x="325.1405" y="336.087" width="9.8099" height="80.2099" fill="#bdbdbd" stroke="none"/><rect x="338.217" y="336.087" width="9.8099" height="80.2099" fill="#bdbdbd" stroke="none"/><rect x="350.464" y="336.087" width="9.8099" height="80.2099" fill="#bdbdbd" stroke="none"/><rect x="362.8134" y="336.087" width="9.8099" height="80.2099" fill="#bdbdbd" stroke="none"/><rect x="375.7978" y="336.087" width="9.8099" height="80.2099" fill="#bdbdbd" stroke="none"/><rect x="387.9629" y="336.087" width="9.8099" height="80.2099" fill="#bdbdbd" stroke="none"/><rect x="400.599" y="336.087" width="9.8099" height="80.2099" fill="#bdbdbd" stroke="none"/><rect x="412.9382" y="336.087" width="9.8099" height="80.2099" fill="#bdbdbd" stroke="none"/><rect x="425.1955" y="336.087" width="9.8099" height="80.2099" fill="#bdbdbd" stroke="none"/><rect x="437.2173" y="336.087" width="9.8099" height="80.2099" fill="#bdbdbd" stroke="none"/><rect x="449.9046" y="336.087" width="9.8099" height="80.2099" fill="#bdbdbd" stroke="none"/><rect x="462.7866" y="336.087" width="9.8099" height="80.2099" fill="#bdbdbd" stroke="none"/><rect x="475.4227" y="336.087" width="9.8099" height="80.2099" fill="#bdbdbd" stroke="none"/><rect x="488.1101" y="336.087" width="9.8099" height="80.2099" fill="#bdbdbd" stroke="none"/><rect x="500.6541" y="336.087" width="9.8099" height="80.2099" fill="#bdbdbd" stroke="none"/><rect x="513.2595" y="336.087" width="9.8099" height="80.2099" fill="#bdbdbd" stroke="none"/><rect x="525.4349" y="336.087" width="9.8099" height="80.2099" fill="#bdbdbd" stroke="none"/><rect x="538.153" y="336.087" width="9.8099" height="80.2099" fill="#bdbdbd" stroke="none"/><rect x="550.2259" y="336.087" width="9.8099" height="80.2099" fill="#bdbdbd" stroke="none"/><rect x="563.0259" y="336.087" width="9.8099" height="80.2099" fill="#bdbdbd" stroke="none"/><rect x="575.744" y="336.087" width="9.8099" height="80.2099" fill="#bdbdbd" stroke="none"/><rect x="588.1651" y="336.087" width="9.8099" height="80.2099" fill="#bdbdbd" stroke="none"/><rect x="600.535" y="336.087" width="9.8099" height="80.2099" fill="#bdbdbd" stroke="none"/><rect x="613.0483" y="336.087" width="9.8099" height="80.2099" fill="#bdbdbd" stroke="none"/><rect x="625.4899" y="336.087" width="9.8099" height="80.2099" fill="#bdbdbd" stroke="none"/><rect x="637.952" y="336.087" width="9.8099" height="80.2099" fill="#bdbdbd" stroke="none"/><rect x="650.5472" y="336.087" width="9.8099" height="80.2099" fill="#bdbdbd" stroke="none"/><rect x="662.8147" y="336.087" width="9.8099" height="80.2099" fill="#bdbdbd" stroke="none"/><rect x="675.5328" y="336.087" width="9.8099" height="80.2099" fill="#bdbdbd" stroke="none"/><rect x="688.4045" y="336.087" width="9.8099" height="80.2099" fill="#bdbdbd" stroke="none"/><rect x="700.416" y="336.087" width="9.8099" height="80.2099" fill="#bdbdbd" stroke="none"/><rect x="295.1578" y="416.768" width="433.6333" height="14.4691" fill="#cccccc" stroke="none"/><rect x="313.0573" y="452.7616" width="9.8099" height="81.6128" fill="#bdbdbd" stroke="none"/><rect x="325.4067" y="452.7616" width="9.8099" height="81.6128" fill="#bdbdbd" stroke="none"/><rect x="338.0429" y="452.7616" width="9.8099" height="81.6128" fill="#bdbdbd" stroke="none"/><rect x="350.9965" y="452.7616" width="9.8099" height="81.6128" fill="#bdbdbd" stroke="none"/><rect x="363.1718" y="452.7616" width="9.8099" height="81.6128" fill="#bdbdbd" stroke="none"/><rect x="375.7158" y="452.7616" width="9.8099" height="81.6128" fill="#bdbdbd" stroke="none"/><rect x="388.3213" y="452.7616" width="9.8099" height="81.6128" fill="#bdbdbd" stroke="none"/><rect x="400.7731" y="452.7616" width="9.8099" height="81.6128" fill="#bdbdbd" stroke="none"/><rect x="413.1123" y="452.7616" width="9.8099" height="81.6128" fill="#bdbdbd" stroke="none"/><rect x="425.4618" y="452.7616" width="9.8099" height="81.6128" fill="#bdbdbd" stroke="none"/><rect x="438.1901" y="452.7616" width="9.8099" height="81.6128" fill="#bdbdbd" stroke="none"/><rect x="450.519" y="452.7616" width="9.8099" height="81.6128" fill="#bdbdbd" stroke="none"/><rect x="462.8787" y="452.7616" width="9.8099" height="81.6128" fill="#bdbdbd" stroke="none"/><rect x="475.5968" y="452.7616" width="9.8099" height="81.6128" fill="#bdbdbd" stroke="none"/><rect x="488.2022" y="452.7616" width="9.8099" height="81.6128" fill="#bdbdbd" stroke="none"/><rect x="500.5722" y="452.7616" width="9.8099" height="81.6128" fill="#bdbdbd" stroke="none"/><rect x="513.0854" y="452.7616" width="9.8099" height="81.6128" fill="#bdbdbd" stroke="none"/><rect x="525.609" y="452.7616" width="9.8099" height="81.6128" fill="#bdbdbd" stroke="none"/><rect x="538.2451" y="452.7616" width="9.8099" height="81.6128" fill="#bdbdbd" stroke="none"/><rect x="550.6662" y="452.7616" width="9.8099" height="81.6128" fill="#bdbdbd" stroke="none"/><rect x="563.1078" y="452.7616" width="9.8099" height="81.6128" fill="#bdbdbd" stroke="none"/><rect x="575.3958" y="452.7616" width="9.8099" height="81.6128" fill="#bdbdbd" stroke="none"/><rect x="588.1754" y="452.7616" width="9.8099" height="81.6128" fill="#bdbdbd" stroke="none"/><rect x="600.0128" y="452.7616" width="9.8099" height="81.6128" fill="#bdbdbd" stroke="none"/><rect x="613.4886" y="452.7616" width="9.8099" height="81.6128" fill="#bdbdbd" stroke="none"/><rect x="625.6742" y="452.7616" width="9.8099" height="81.6128" fill="#bdbdbd" stroke="none"/><rect x="637.5936" y="452.7616" width="9.8099" height="81.6128" fill="#bdbdbd" stroke="none"/><rect x="650.5472" y="452.7616" width="9.8099" height="81.6128" fill="#bdbdbd" stroke="none"/><rect x="663.081" y="452.7616" width="9.8099" height="81.6128" fill="#bdbdbd" stroke="none"/><rect x="675.7171" y="452.7616" width="9.8099" height="81.6128" fill="#bdbdbd" stroke="none"/><rect x="687.616" y="452.7616" width="9.8099" height="81.6128" fill="#bdbdbd" stroke="none"/><rect x="700.8563" y="452.7616" width="9.8099" height="81.6128" fill="#bdbdbd" stroke="none"/><rect x="295.1578" y="534.7635" width="433.6333" height="14.4691" fill="#cccccc" stroke="none"/><rect x="313.1392" y="570.2656" width="9.8099" height="81.8688" fill="#bdbdbd" stroke="none"/><rect x="325.5808" y="570.2656" width="9.8099" height="81.8688" fill="#bdbdbd" stroke="none"/><rect x="338.391" y="570.2656" width="9.8099" height="81.8688" fill="#bdbdbd" stroke="none"/><rect x="350.7302" y="570.2656" width="9.8099" height="81.8688" fill="#bdbdbd" stroke="none"/><rect x="363.3459" y="570.2656" width="9.8099" height="81.8688" fill="#bdbdbd" stroke="none"/><rect x="375.5418" y="570.2656" width="9.8099" height="81.8688" fill="#bdbdbd" stroke="none"/><rect x="388.055" y="570.2656" width="9.8099" height="81.8688" fill="#bdbdbd" stroke="none"/><rect x="400.6912" y="570.2656" width="9.8099" height="81.8688" fill="#bdbdbd" stroke="none"/><rect x="413.1123" y="570.2656" width="9.8099" height="81.8688" fill="#bdbdbd" stroke="none"/><rect x="425.9021" y="570.2656" width="9.8099" height="81.8688" fill="#bdbdbd" stroke="none"/><rect x="438.5382" y="570.2656" width="9.8099" height="81.8688" fill="#bdbdbd" stroke="none"/><rect x="450.4371" y="570.2656" width="9.8099" height="81.8688" fill="#bdbdbd" stroke="none"/><rect x="462.8787" y="570.2656" width="9.8099" height="81.8688" fill="#bdbdbd" stroke="none"/><rect x="475.5968" y="570.2656" width="9.8099" height="81.8688" fill="#bdbdbd" stroke="none"/><rect x="488.1101" y="570.2656" width="9.8099" height="81.8688" fill="#bdbdbd" stroke="none"/><rect x="500.6541" y="570.2656" width="9.8099" height="81.8688" fill="#bdbdbd" stroke="none"/><rect x="513.1674" y="570.2656" width="9.8099" height="81.8688" fill="#bdbdbd" stroke="none"/><rect x="525.4349" y="570.2656" width="9.8099" height="81.8688" fill="#bdbdbd" stroke="none"/><rect x="538.5114" y="570.2656" width="9.8099" height="81.8688" fill="#bdbdbd" stroke="none"/><rect x="550.7584" y="570.2656" width="9.8099" height="81.8688" fill="#bdbdbd" stroke="none"/><rect x="563.1078" y="570.2656" width="9.8099" height="81.8688" fill="#bdbdbd" stroke="none"/><rect x="575.744" y="570.2656" width="9.8099" height="81.8688" fill="#bdbdbd" stroke="none"/><rect x="587.991" y="570.2656" width="9.8099" height="81.8688" fill="#bdbdbd" stroke="none"/><rect x="600.6272" y="570.2656" width="9.8099" height="81.8688" fill="#bdbdbd" stroke="none"/><rect x="613.4067" y="570.2656" width="9.8099" height="81.8688" fill="#bdbdbd" stroke="none"/><rect x="625.6742" y="570.2656" width="9.8099" height="81.8688" fill="#bdbdbd" stroke="none"/><rect x="638.4742" y="570.2656" width="9.8099" height="81.8688" fill="#bdbdbd" stroke="none"/><rect x="650.8134" y="570.2656" width="9.8099" height="81.8688" fill="#bdbdbd" stroke="none"/><rect x="662.8147" y="570.2656" width="9.8099" height="81.8688" fill="#bdbdbd" stroke="none"/><rect x="675.625" y="570.2656" width="9.8099" height="81.8688" fill="#bdbdbd" stroke="none"/><rect x="688.2304" y="570.2656" width="9.8099" height="81.8688" fill="#bdbdbd" stroke="none"/><rect x="700.5082" y="570.2656" width="9.8099" height="81.8688" fill="#bdbdbd" stroke="none"/><rect x="295.1578" y="652.9946" width="433.6333" height="14.4691" fill="#cccccc" stroke="none"/><rect x="312.791" y="685.9366" width="9.8099" height="82.1965" fill="#bdbdbd" stroke="none"/><rect x="325.3248" y="685.9366" width="9.8099" height="82.1965" fill="#bdbdbd" stroke="none"/><rect x="338.217" y="685.9366" width="9.8099" height="82.1965" fill="#bdbdbd" stroke="none"/><rect x="350.9965" y="685.9366" width="9.8099" height="82.1965" fill="#bdbdbd" stroke="none"/><rect x="362.9056" y="685.9366" width="9.8099" height="82.1965" fill="#bdbdbd" stroke="none"/><rect x="375.6339" y="685.9366" width="9.8099" height="82.1965" fill="#bdbdbd" stroke="none"/><rect x="388.1472" y="685.9366" width="9.8099" height="82.1965" fill="#bdbdbd" stroke="none"/><rect x="400.599" y="685.9366" width="9.8099" height="82.1965" fill="#bdbdbd" stroke="none"/><rect x="412.7642" y="685.9366" width="9.8099" height="82.1965" fill="#bdbdbd" stroke="none"/><rect x="425.3798" y="685.9366" width="9.8099" height="82.1965" fill="#bdbdbd" stroke="none"/><rect x="438.016" y="685.9366" width="9.8099" height="82.1965" fill="#bdbdbd" stroke="none"/><rect x="450.7034" y="685.9366" width="9.8099" height="82.1965" fill="#bdbdbd" stroke="none"/><rect x="463.0528" y="685.9366" width="9.8099" height="82.1965" fill="#bdbdbd" stroke="none"/><rect x="475.5968" y="685.9366" width="9.8099" height="82.1965" fill="#bdbdbd" stroke="none"/><rect x="488.2842" y="685.9366" width="9.8099" height="82.1965" fill="#bdbdbd" stroke="none"/><rect x="500.6541" y="685.9366" width="9.8099" height="82.1965" fill="#bdbdbd" stroke="none"/><rect x="513.2595" y="685.9366" width="9.8099" height="82.1965" fill="#bdbdbd" stroke="none"/><rect x="525.7933" y="685.9366" width="9.8099" height="82.1965" fill="#bdbdbd" stroke="none"/><rect x="538.5114" y="685.9366" width="9.8099" height="82.1965" fill="#bdbdbd" stroke="none"/><rect x="550.8506" y="685.9366" width="9.8099" height="82.1965" fill="#bdbdbd" stroke="none"/><rect x="563.2" y="685.9366" width="9.8099" height="82.1965" fill="#bdbdbd" stroke="none"/><rect x="575.6621" y="685.9366" width="9.8099" height="82.1965" fill="#bdbdbd" stroke="none"/><rect x="588.3494" y="685.9366" width="9.8099" height="82.1965" fill="#bdbdbd" stroke="none"/><rect x="600.6272" y="685.9366" width="9.8099" height="82.1965" fill="#bdbdbd" stroke="none"/><rect x="613.0586" y="685.9366" width="9.8099" height="82.1965" fill="#bdbdbd" stroke="none"/><rect x="625.4899" y="685.9366" width="9.8099" height="82.1965" fill="#bdbdbd" stroke="none"/><rect x="638.1261" y="685.9366" width="9.8099" height="82.1965" fill="#bdbdbd" stroke="none"/><rect x="650.7315" y="685.9366" width="9.8099" height="82.1965" fill="#bdbdbd" stroke="none"/><rect x="662.9069" y="685.9366" width="9.8099" height="82.1965" fill="#bdbdbd" stroke="none"/><rect x="674.9184" y="685.9366" width="9.8099" height="82.1965" fill="#bdbdbd" stroke="none"/><rect x="688.0563" y="685.9366" width="9.8099" height="82.1965" fill="#bdbdbd" stroke="none"/><rect x="701.0406" y="685.9366" width="9.8099" height="82.1965" fill="#bdbdbd" stroke="none"/><rect x="295.1578" y="771.584" width="433.6333" height="14.4691" fill="#cccccc" stroke="none"/><rect x="313.1392" y="801.9354" width="9.8099" height="81.7971" fill="#bdbdbd" stroke="none"/><rect x="325.847" y="801.9354" width="9.8099" height="81.7971" fill="#bdbdbd" stroke="none"/><rect x="338.4832" y="801.9354" width="9.8099" height="81.7971" fill="#bdbdbd" stroke="none"/><rect x="350.7302" y="801.9354" width="9.8099" height="81.7971" fill="#bdbdbd" stroke="none"/><rect x="362.9056" y="801.9354" width="9.8099" height="81.7971" fill="#bdbdbd" stroke="none"/><rect x="375.6339" y="801.9354" width="9.8099" height="81.7971" fill="#bdbdbd" stroke="none"/><rect x="387.7888" y="801.9354" width="9.8099" height="81.7971" fill="#bdbdbd" stroke="none"/><rect x="400.2509" y="801.9354" width="9.8099" height="81.7971" fill="#bdbdbd" stroke="none"/><rect x="413.5526" y="801.9354" width="9.8099" height="81.7971" fill="#bdbdbd" stroke="none"/><rect x="425.5539" y="801.9354" width="9.8099" height="81.7971" fill="#bdbdbd" stroke="none"/><rect x="437.7498" y="801.9354" width="9.8099" height="81.7971" fill="#bdbdbd" stroke="none"/><rect x="450.7853" y="801.9354" width="9.8099" height="81.7971" fill="#bdbdbd" stroke="none"/><rect x="463.0528" y="801.9354" width="9.8099" height="81.7971" fill="#bdbdbd" stroke="none"/><rect x="475.3306" y="801.9354" width="9.8099" height="81.7971" fill="#bdbdbd" stroke="none"/><rect x="488.2842" y="801.9354" width="9.8099" height="81.7971" fill="#bdbdbd" stroke="none"/><rect x="500.5722" y="801.9354" width="9.8099" height="81.7971" fill="#bdbdbd" stroke="none"/><rect x="512.9933" y="801.9354" width="9.8099" height="81.7971" fill="#bdbdbd" stroke="none"/><rect x="525.7011" y="801.9354" width="9.8099" height="81.7971" fill="#bdbdbd" stroke="none"/><rect x="538.2451" y="801.9354" width="9.8099" height="81.7971" fill="#bdbdbd" stroke="none"/><rect x="550.2362" y="801.9354" width="9.8099" height="81.7971" fill="#bdbdbd" stroke="none"/><rect x="563.4662" y="801.9354" width="9.8099" height="81.7971" fill="#bdbdbd" stroke="none"/><rect x="575.3958" y="801.9354" width="9.8099" height="81.7971" fill="#bdbdbd" stroke="none"/><rect x="588.1754" y="801.9354" width="9.8099" height="81.7971" fill="#bdbdbd" stroke="none"/><rect x="600.8934" y="801.9354" width="9.8099" height="81.7971" fill="#bdbdbd" stroke="none"/><rect x="613.3146" y="801.9354" width="9.8099" height="81.7971" fill="#bdbdbd" stroke="none"/><rect x="625.7562" y="801.9354" width="9.8099" height="81.7971" fill="#bdbdbd" stroke="none"/><rect x="637.952" y="801.9354" width="9.8099" height="81.7971" fill="#bdbdbd" stroke="none"/><rect x="650.6394" y="801.9354" width="9.8099" height="81.7971" fill="#bdbdbd" stroke="none"/><rect x="662.8147" y="801.9354" width="9.8099" height="81.7971" fill="#bdbdbd" stroke="none"/><rect x="675.4509" y="801.9354" width="9.8099" height="81.7971" fill="#bdbdbd" stroke="none"/><rect x="688.1382" y="801.9354" width="9.8099" height="81.7971" fill="#bdbdbd" stroke="none"/><rect x="700.4262" y="801.9354" width="9.8099" height="81.7971" fill="#bdbdbd" stroke="none"/><rect x="295.1578" y="889.7946" width="433.6333" height="14.7558" fill="#cccccc" stroke="none"/><rect x="284.4877" y="298.7622" width="10.6701" height="605.7779" fill="#dbdbdb" stroke="none"/><rect x="728.791" y="298.7622" width="12.0934" height="605.7779" fill="#dbdbdb" stroke="none"/><polygon points="0,0 87.04,56.32 87.04,904.5401 0,1024" fill="#737373" stroke="none"/><polygon points="1024,0 936.96,56.32 936.96,904.5401 1024,1024" fill="#737373" stroke="none"/><circle cx="510.8634" cy="179.5891" r="30.5357" fill="#e6e6e6" stroke="none"/></svg>